<svg width="98" height="162" viewBox="0 0 98 162" fill="none" xmlns="http://www.w3.org/2000/svg">
<g id="Group 2">
<path id="Vector" d="M95.2729 93.5893H95.2749L88.997 83.1472L85.996 85.0737C83.3544 83.8502 80.4231 83.1472 77.3207 83.1472H26.1429C14.7213 83.1472 5.46342 92.4058 5.46342 103.829V136.787L1.38281 139.409L8.0993 151.189C8.38331 151.695 8.68061 152.192 9.00455 152.671C12.7226 158.164 19.0111 161.774 26.1429 161.774H77.3207C88.7422 161.774 98.0001 152.514 98.0001 141.093V103.829C98.0001 100.098 97.0004 96.61 95.2729 93.5893Z" fill="#E1325A"/>
<path id="Vector_2" d="M71.8579 152.67H20.6813C9.26046 152.67 0 143.412 0 131.991V94.7248C0 83.302 9.26046 74.0435 20.6813 74.0435H71.8579C83.2788 74.0435 92.5373 83.302 92.5373 94.7248V131.991C92.5373 143.412 83.2788 152.67 71.8579 152.67Z" fill="url(#paint0_linear_62_1807)"/>
<path id="Vector_3" d="M54.0439 115.632H50.7284C43.4528 115.632 38.3877 116.737 38.3877 122.169C38.3877 126.038 40.9653 127.695 44.5578 127.695C50.1744 127.695 54.0439 123.645 54.0439 120.145V115.632ZM46.2168 96.7526C54.2277 96.7526 59.8463 100.897 59.8463 108.632V124.012C60.2139 126.96 62.2387 128.526 64.4505 128.526C69.5162 128.526 70.4354 120.236 70.4354 114.71C70.4354 98.5022 62.8847 89.0148 46.7683 89.0148C28.3482 89.0148 22.6383 101.725 22.6383 115.724C22.6383 128.71 27.7947 140.773 43.913 140.773C51.8334 140.773 54.8718 138.011 56.7127 138.011C58.0966 138.011 58.9252 139.577 58.9252 140.404C58.9252 143.353 49.8067 145.748 43.0832 145.748C29.6388 145.748 17.2056 136.445 17.2056 115.815C17.2056 98.0413 26.1376 83.8584 46.8589 83.8584C65.3722 83.8584 75.8701 94.7259 75.8701 113.789C75.8701 123.919 72.6459 133.13 63.9902 133.13C59.1996 133.13 55.6097 130.274 54.8718 126.96C51.7402 130.366 48.793 132.393 43.5435 132.393C37.3734 132.393 31.9406 129.629 31.9406 122.169C31.9406 113.698 39.2156 111.488 50.1744 111.488H53.8581V109.829C53.8581 104.857 51.1887 102.462 45.2025 102.462C39.4014 102.462 37.9268 104.764 36.4536 104.764C35.0723 104.764 34.1505 102.738 34.1505 101.634C34.1505 98.8699 40.5976 96.7526 46.2168 96.7526Z" fill="white"/>
<path id="Vector_4" d="M17.2056 1H89.4673" stroke="white" stroke-miterlimit="10"/>
<path id="Vector_5" fill-rule="evenodd" clip-rule="evenodd" d="M49.6914 45.1742C49.6914 42.0553 47.1588 39.5227 44.0399 39.5227C40.9203 39.5227 38.3884 42.0553 38.3884 45.1742C38.3884 48.2938 40.9203 50.8257 44.0399 50.8257C47.1588 50.8257 49.6914 48.2938 49.6914 45.1742Z" stroke="#05CDFF" stroke-width="3" stroke-miterlimit="10"/>
<path id="Vector_6" d="M83.933 54.8581C83.933 57.0851 82.1288 58.8893 79.9018 58.8893C77.6735 58.8893 75.8694 57.0851 75.8694 54.8581C75.8694 52.6318 77.6735 50.8257 79.9018 50.8257C82.1288 50.8257 83.933 52.6318 83.933 54.8581Z" fill="white"/>
</g>
<defs>
<linearGradient id="paint0_linear_62_1807" x1="46.2687" y1="74.0435" x2="46.2687" y2="152.67" gradientUnits="userSpaceOnUse">
<stop stop-color="#A1EB4B"/>
<stop offset="1" stop-color="#67E44B"/>
</linearGradient>
</defs>
</svg>
