<svg width="189" height="195" viewBox="0 0 189 195" fill="none" xmlns="http://www.w3.org/2000/svg">
<g id="Group 4">
<path id="Vector" d="M182.018 153.209L187.883 141.353L178.571 139.279L158.065 86.9068C156.623 83.2278 152.47 81.4099 148.788 82.8519L67.7639 114.582L56.4529 112.061C56.4529 112.061 53.3949 118.6 51.3759 122.371C50.8389 123.374 50.3389 124.405 50.2039 125.548C50.0719 126.679 50.1719 127.851 50.6169 128.983L74.5679 190.144C76.0089 193.826 80.1619 195.641 83.8419 194.199L112.201 183.093L132.001 191.752C135.439 193.254 139.442 191.686 140.944 188.248L149.601 168.448L177.96 157.342C179.39 156.782 180.527 155.805 181.314 154.613H181.323C181.61 154.091 181.788 153.815 182.018 153.209Z" fill="#FFA50A"/>
<path id="Vector_2" d="M187.758 136.579L163.808 75.4178C162.366 71.7388 158.213 69.9209 154.534 71.3629L60.4158 108.22C56.7328 109.662 54.9178 113.812 56.3598 117.494L80.3098 178.655C81.7518 182.337 85.9048 184.152 89.5868 182.713L117.943 171.604L137.743 180.264C141.181 181.766 145.188 180.2 146.69 176.76L155.346 156.96L183.702 145.856C187.384 144.414 189.2 140.261 187.758 136.579Z" fill="#FFC305"/>
<path id="Vector_3" d="M116.327 104.229L125.857 109.609C126.44 109.936 127.095 110.109 127.761 110.106L138.704 110.065C141.139 110.057 142.966 112.286 142.483 114.672L140.315 125.397C140.183 126.051 140.223 126.726 140.433 127.361L143.851 137.755C144.612 140.07 143.058 142.497 140.637 142.776L129.766 144.025C129.105 144.102 128.473 144.349 127.936 144.743L119.105 151.205C117.14 152.644 114.351 151.92 113.338 149.703L108.788 139.751C108.513 139.145 108.082 138.623 107.542 138.232L98.6666 131.83C96.6906 130.406 96.5216 127.528 98.3136 125.882L106.373 118.481C106.864 118.03 107.232 117.455 107.433 116.823L110.779 106.404C111.522 104.086 114.208 103.035 116.327 104.229Z" fill="white"/>
<path id="Vector_4" d="M22.3818 0V44.765" stroke="white" stroke-width="3" stroke-miterlimit="10"/>
<path id="Vector_5" d="M44.764 22.3789H0" stroke="white" stroke-width="3" stroke-miterlimit="10"/>
</g>
</svg>
