<svg width="86" height="74" viewBox="0 0 86 74" fill="none" xmlns="http://www.w3.org/2000/svg">
<g id="Group 3">
<path id="Vector" d="M84.7763 22.9999C83.9633 20.5069 82.6533 18.2319 81.0073 16.2449L81.0333 16.2359L76.8173 9.71592L74.1583 10.7879C72.5353 9.98088 70.8032 9.37988 68.9962 9.02988C62.9332 7.84988 57.2273 9.2709 52.7693 12.3729C48.5183 15.3309 43.0702 15.3309 38.8192 12.3729C34.3652 9.2709 28.6552 7.84988 22.5952 9.02988C15.2712 10.4549 9.12825 15.9089 6.81325 22.9999C5.15925 28.0749 5.52325 33.0459 7.19825 37.7799L6.26222 38.1559L10.5043 44.5259C10.6873 44.8249 10.8942 45.1119 11.0902 45.4079L11.9253 46.6599C23.1673 62.5539 45.7963 74.0019 45.7963 74.0019C45.7963 74.0019 93.5353 49.8599 84.7763 22.9999Z" fill="url(#paint0_linear_62_1814)"/>
<path id="Vector_2" d="M63.2563 0.412938C57.1933 -0.767062 51.4863 0.653956 47.0293 3.75596C42.7783 6.71396 37.3302 6.71396 33.0793 3.75596C28.6243 0.653956 22.9153 -0.767062 16.8553 0.412938C9.53125 1.83694 3.38727 7.29197 1.07327 14.383C-7.68673 41.242 40.0553 65.385 40.0553 65.385C40.0553 65.385 87.7953 41.242 79.0353 14.383C76.7233 7.29197 70.5803 1.83694 63.2563 0.412938Z" fill="#FF6196"/>
</g>
<defs>
<linearGradient id="paint0_linear_62_1814" x1="45.7955" y1="8.61694" x2="45.7955" y2="74.0019" gradientUnits="userSpaceOnUse">
<stop stop-color="#A1EB4B"/>
<stop offset="1" stop-color="#67E44B"/>
</linearGradient>
</defs>
</svg>
