<svg width="192" height="178" viewBox="0 0 192 178" fill="none" xmlns="http://www.w3.org/2000/svg">
<g id="Group 5">
<path id="Vector" d="M164.482 133.032C171.352 115.437 166.036 94.7501 150.17 82.8903C134.303 71.0305 112.957 71.7882 98.0273 83.3585L96.7482 82.4024L88.8608 92.9544L88.9273 93.0041C75.8687 111.966 79.9816 138 98.5833 151.904C117.184 165.808 143.318 162.383 157.805 144.489L157.874 144.54L165.761 133.988L164.482 133.032Z" fill="#FFA50A"/>
<path id="Vector_2" d="M165.76 133.988C151.514 153.047 124.518 156.946 105.461 142.701C86.4044 128.457 82.5012 101.461 96.7474 82.4018C110.992 63.3451 137.99 59.4437 157.047 73.6881C176.103 87.9326 180.005 114.931 165.76 133.988Z" fill="#FFD23C"/>
<path id="Vector_3" d="M121.148 86.3418C123.788 82.8104 128.789 82.0877 132.318 84.7256C135.849 87.3653 136.572 92.3663 133.932 95.8978" stroke="#50555A" stroke-miterlimit="10"/>
<path id="Vector_4" d="M141.584 101.617C144.224 98.0858 149.225 97.3631 152.754 100.001C156.284 102.64 157.007 107.641 154.367 111.173" stroke="#50555A" stroke-miterlimit="10"/>
<path id="Vector_5" d="M116.633 101.461C114.562 104.23 109.772 104.149 105.932 101.279C102.093 98.409 100.658 93.8373 102.729 91.0676C104.799 88.2978 109.59 88.3793 113.429 91.2489C117.269 94.1191 118.703 98.6908 116.633 101.461Z" fill="#FF9669"/>
<path id="Vector_6" d="M155.74 130.692C153.67 133.462 148.879 133.381 145.04 130.511C141.2 127.641 139.766 123.069 141.836 120.3C143.906 117.53 148.697 117.611 152.537 120.481C156.376 123.351 157.81 127.923 155.74 130.692Z" fill="#FF9669"/>
<path id="Vector_7" d="M42.147 21.8298L48.5492 66.1337" stroke="white" stroke-width="3" stroke-miterlimit="10"/>
<path id="Vector_8" d="M67.5018 40.7818L23.1971 47.1834" stroke="white" stroke-width="3" stroke-miterlimit="10"/>
</g>
</svg>
